=--Storyline--=

Family Guy creator Seth MacFarlane brings his boundary-pushing 
brand of humor to the big screen for the first time as writer, director 
and voice star of Ted. In the live action/CG-animated comedy, 
he tells the story of John Bennett, a grown man who must deal with the 
cherished teddy bear who came to life as the result of a childhood wish, 
and has refused to leave his side ever since.




=--Cast--=

Mark Wahlberg ... John
Mila Kunis ... Lori
Seth MacFarlane ... Ted
Giovanni Ribisi ... Donny
Laura Vandervoort ... Tanya
Joel McHale ... Rex
Bill Smitrovich ... Frank
Matt Walsh ... Thomas
Bretton Manley ... Young John
Alex Borstein ... John's Mom
Patrick Warburton ... Guy
Jessica Barth ... Tami-Lynn
Patrick Stewart ... Narrator
Jessica Stroup ... Tracy
Tara Strong ... Bellybutton
Norah Jones ... Herself




=--General--=

Format                                   : Matroska
Format version                           : Version 4 / Version 2
File size                                : 338 MiB
Duration                                 : 1h 46mn
Overall bit rate                         : 446 Kbps
Movie name                               : Ted {2012} {BRRip} {x264} {480p} {Hindi} {rdx004} {DMRG}
Encoded date                             : UTC 2013-02-25 14:35:05

=--Video--=

ID                                       : 1
Format                                   : AVC
Format/Info                              : Advanced Video Codec
Format profile                           : High@L2.1
Format settings, CABAC                   : Yes
Format settings, ReFrames                : 6 frames
Codec ID                                 : V_MPEG4/ISO/AVC
Duration                                 : 1h 46mn
Bit rate                                 : 348 Kbps
Width                                    : 640 pixels
Height                                   : 272 pixels
Display aspect ratio                     : 16:9
Original display aspect ratio            : 2.35:1
Frame rate mode                          : Constant
Frame rate                               : 23.976 fps
Color space                              : YUV
Chroma subsampling                       : 4:2:0
Bit depth                                : 8 bits
Scan type                                : Progressive
Bits/(Pixel*Frame)                       : 0.083
Stream size                              : 259 MiB (76%)
Writing library                          : x264 core 112
Default                                  : Yes
Forced                                   : No
Color primaries                          : BT.709
Transfer characteristics                 : BT.709
Matrix coefficients                      : BT.709

=--Audio--=

ID                                       : 2
Format                                   : MPEG Audio
Format version                           : Version 1
Format profile                           : Layer 3
Mode                                     : Joint stereo
Mode extension                           : MS Stereo
Codec ID                                 : A_MPEG/L3
Codec ID/Hint                            : MP3
Duration                                 : 1h 46mn
Bit rate mode                            : Constant
Bit rate                                 : 96.0 Kbps
Channel(s)                               : 2 channels
Sampling rate                            : 32.0 KHz
Compression mode                         : Lossy
Stream size                              : 72.8 MiB (22%)
Title                                    : Hindi by rdx004
Writing library                          : LAME3.98.2
Language                                 : Hindi
Default                                  : Yes
Forced                                   : No

=--Text--=

ID                                       : 3
Format                                   : UTF-8
Codec ID                                 : S_TEXT/UTF8
Codec ID/Info                            : UTF-8 Plain Text
Default                                  : Yes
Forced                                   : No

